# xmcd
#
# Track frame offsets: 
#        150
#        21425
#        39712
#        60000
#        79000
#        100787
#        122025
#        140700
#        158495
#        176450
#        193537
#        215370
#
# Disc length: 3162 seconds
#
# Revision: 1
# Processed by: cddbd v1.5.2PL0 Copyright (c) Steve Scherf et al.
# Submitted via: ExactAudioCopy v1.3
#
DISCID=970c580c
DTITLE=宮原学 - READY STEADY GO 32DH-588
DYEAR=1986
DGENRE=Rock
TTITLE0=LET'S GET CRAZY
TTITLE1=GIVE ME YOUR LOVE (REMIX VERSION)
TTITLE2=NEVER SAY GOOD-BYE
TTITLE3=READY STEADY GO
TTITLE4=UP TOWN-BROKEN SKY
TTITLE5=WALKIN' IN THE RAIN
TTITLE6=THE FIGHT (REMIX VERSION)
TTITLE7=EASY RIDER
TTITLE8=I WANT YOU
TTITLE9=BLUZY CRAZY
TTITLE10=FEELIN' BAD
TTITLE11=LUCIA
EXTD=YEAR: 1986.12.21
EXTT0=
EXTT1=
EXTT2=
EXTT3=
EXTT4=
EXTT5=
EXTT6=
EXTT7=
EXTT8=
EXTT9=
EXTT10=
EXTT11=
PLAYORDER=
